<?xml version="1.0" encoding="UTF-8"?>
<svg width="1200px" height="1200px" viewBox="0 0 1200 1200" version="1.1" xmlns="http://www.w3.org/2000/svg" xmlns:xlink="http://www.w3.org/1999/xlink">
    <!-- Generator: Sketch 55.2 (78181) - https://sketchapp.com -->
    <title>fast@1x</title>
    <desc>Created with Sketch.</desc>
    <g id="fast" stroke="none" stroke-width="1" fill="none" fill-rule="evenodd">
        <g id="crux_logo_white_bg">
            <g id="logo_chrome_user_experience_report_192px-(4)">
                <rect id="bounding_box" x="0" y="0" width="1200" height="1200"></rect>
                <g id="art_layer" transform="translate(225.000000, 237.500000)" fill="#34A853" fill-rule="nonzero">
                    <path d="M187.5,362.5 L187.5,93.75 C187.5,42 145.5,0 93.75,0 C42,0 0,42 0,93.75 L0,362.5 C0,506.875 81.6875,632.1875 201.3125,694.8125 L348.0625,548.0625 C257.25,535 187.5,456.875 187.5,362.5 Z" id="Path"></path>
                    <path d="M562.5,333.625 L562.5,362.5 C562.5,466.0625 478.5625,550 375,550 C365.875,550 356.875,549.3125 348.0625,548.0625 L201.3125,694.8125 C253.25,722 312.3125,737.5 375,737.5 C582.125,737.5 750,569.625 750,362.5 L750,146.125 L562.5,333.625 Z" id="Path"></path>
                    <path d="M656.25,0 C604.5,0 562.5,42 562.5,93.75 L562.5,333.625 L750,146.125 L750,93.75 C750,42 708,0 656.25,0 Z" id="Path"></path>
                    <circle id="blue_circle" cx="375" cy="362.5" r="112.5"></circle>
                </g>
            </g>
        </g>
    </g>
</svg>